Input #0, mp3, from 'public/assets/light.mp3':
  Metadata:
    major_brand     : isom
    minor_version   : 512
    compatible_brands: isomiso2avc1mp41
    encoder         : Lavf60.16.100
  Duration: 00:02:33.48, start: 0.025057, bitrate: 79 kb/s
  Stream #0:0: Audio: mp3 (mp3float), 44100 Hz, stereo, fltp, 79 kb/s, start 0.025057
    Metadata:
      encoder         : Lavc60.31
Stream mapping:
  Stream #0:0 -> #0:0 (mp3 (mp3float) -> pcm_s16le (native))
Press [q] to stop, [?] for help
Output #0, null, to 'pipe:':
  Metadata:
    major_brand     : isom
    minor_version   : 512
    compatible_brands: isomiso2avc1mp41
    encoder         : Lavf62.3.100
  Stream #0:0: Audio: pcm_s16le, 44100 Hz, stereo, s16, 1411 kb/s
    Metadata:
      encoder         : Lavc62.11.100 pcm_s16le
[silencedetect @ 0xba2c40780] silence_start: 0
[silencedetect @ 0xba2c40780] silence_end: 0.475102 | silence_duration: 0.475102
[silencedetect @ 0xba2c40780] silence_start: 151.374036
[silencedetect @ 0xba2c40780] silence_end: 153.4839 | silence_duration: 2.109864
[out#0/null @ 0xba2c38180] video:0KiB audio:26440KiB subtitle:0KiB other streams:0KiB global headers:0KiB muxing overhead: unknown
size=N/A time=00:02:33.48 bitrate=N/A speed=2.14e+03x elapsed=0:00:00.07    
